<svg xmlns="http://www.w3.org/2000/svg" width="1200" height="1700" viewBox="0 0 1200 1700" role="img">
  <rect width="1200" height="1700" fill="#edece8"/>
  <path d="M0 1180 C180 1050 280 930 410 760 C530 600 620 500 805 360 C965 240 1080 180 1200 120 L1200 1700 L0 1700 Z" fill="#8b887d"/>
  <path d="M0 1390 C210 1270 365 1190 535 1015 C710 835 825 780 1200 640 L1200 1700 L0 1700 Z" fill="#585a50"/>
  <path d="M0 1510 C290 1410 485 1410 710 1280 C895 1170 1010 1100 1200 1045 L1200 1700 L0 1700 Z" fill="#20211f"/>
</svg>
