<svg xmlns="http://www.w3.org/2000/svg" width="1800" height="1200" viewBox="0 0 1800 1200" role="img">
  <rect width="1800" height="1200" fill="#f3f1ed"/>
  <path d="M0 790 C280 650 460 710 650 610 C840 510 1080 545 1260 430 C1450 310 1620 330 1800 260 L1800 1200 L0 1200 Z" fill="#7d8f7b"/>
  <path d="M0 910 C340 810 610 880 870 760 C1140 635 1380 690 1800 540 L1800 1200 L0 1200 Z" fill="#4f6257"/>
  <path d="M0 1015 C250 965 420 1010 620 935 C900 830 1180 900 1800 760 L1800 1200 L0 1200 Z" fill="#222824"/>
</svg>
